<?xml version="1.0" encoding="utf-8"?>
<!-- Generator: Adobe Illustrator 21.0.1, SVG Export Plug-In . SVG Version: 6.00 Build 0)  -->
<svg version="1.1" id="Capa_1" xmlns="http://www.w3.org/2000/svg" xmlns:xlink="http://www.w3.org/1999/xlink" x="0px" y="0px"
	 viewBox="0 0 230 40" style="enable-background:new 0 0 230 40;" xml:space="preserve">
<style type="text/css">
	.st0{fill:#FFFFFF;}
</style>
<title>LogoRD</title>
<path class="st0" d="M18.8,22.2c0,1-0.7,1.8-1.7,2l2.1,5.7c0.1,0.3-0.1,0.5-0.4,0.5h-1.6c-0.3,0-0.6-0.2-0.6-0.5l-2-5.7h-0.9v5.7
	c0,0.3-0.2,0.5-0.4,0.5c0,0-0.1,0-0.1,0h-1.5c-0.3,0-0.5-0.2-0.5-0.4c0,0,0-0.1,0-0.1V14.3h5.7c1.1,0,2.1,0.9,2.1,2c0,0,0,0,0,0
	L18.8,22.2z M16.1,17c0-0.3-0.2-0.5-0.4-0.5c0,0-0.1,0-0.1,0h-2v5.7h2c0.3,0,0.5-0.2,0.5-0.4c0,0,0-0.1,0-0.1V17z"/>
<path class="st0" d="M23.3,23v5.3h3.1c0.3,0,0.5,0.2,0.5,0.4c0,0,0,0.1,0,0.1v1.1c0,0.3-0.2,0.5-0.4,0.5c0,0-0.1,0-0.1,0h-5.7V14.3
	h5.6c0.3,0,0.5,0.2,0.5,0.4c0,0,0,0.1,0,0.1v1.1c0,0.3-0.2,0.5-0.4,0.5c0,0-0.1,0-0.1,0h-2.9v4.4h2.5c0.3,0,0.5,0.2,0.5,0.4
	c0,0,0,0.1,0,0.1v1.1c0,0.3-0.2,0.5-0.4,0.5c0,0-0.1,0-0.1,0L23.3,23z"/>
<path class="st0" d="M34.6,28.4c0,1.1-0.9,2-2.1,2.1h-1.1c-1.1,0-2-0.9-2.1-2.1l-1.7-13.5c0-0.2,0.1-0.5,0.4-0.5c0,0,0.1,0,0.1,0
	h1.6c0.3,0,0.5,0.2,0.5,0.5l1.5,13.5h0.3l1.5-13.5c0-0.3,0.2-0.5,0.5-0.5c0,0,0,0,0.1,0h1.6c0.2,0,0.5,0.1,0.5,0.4c0,0,0,0.1,0,0.1
	L34.6,28.4z"/>
<path class="st0" d="M37.5,16.4c0-1.1,0.9-2.1,2-2.1c0,0,0,0,0,0h3.9c1.1,0,2.1,0.9,2.1,2c0,0,0,0,0,0v12c0,1.1-0.9,2.1-2,2.1
	c0,0,0,0,0,0h-3.9c-1.1,0-2.1-0.9-2.1-2c0,0,0,0,0,0L37.5,16.4z M40.6,16.4c-0.3,0-0.5,0.2-0.5,0.4c0,0,0,0.1,0,0.1v10.8
	c0,0.3,0.2,0.5,0.4,0.5c0,0,0.1,0,0.1,0h1.7c0.3,0,0.5-0.2,0.5-0.4c0,0,0-0.1,0-0.1V17c0-0.3-0.2-0.5-0.4-0.5c0,0-0.1,0-0.1,0H40.6z
	"/>
<path class="st0" d="M47.4,14.8c0-0.3,0.2-0.5,0.4-0.5c0,0,0.1,0,0.1,0h1.6c0.3,0,0.5,0.2,0.5,0.4c0,0,0,0.1,0,0.1v13.5h3.1
	c0.3,0,0.5,0.2,0.5,0.4c0,0,0,0.1,0,0.1v1.1c0,0.3-0.2,0.5-0.4,0.5c0,0-0.1,0-0.1,0h-5.7V14.8z"/>
<path class="st0" d="M59.9,14.8c0-0.3,0.2-0.5,0.4-0.5c0,0,0.1,0,0.1,0H62c0.3,0,0.5,0.2,0.5,0.4c0,0,0,0.1,0,0.1v13.5
	c0,1.1-0.9,2.1-2,2.1c0,0,0,0,0,0h-3.6c-1.1,0-2.1-0.9-2.1-2c0,0,0,0,0,0V14.8c0-0.3,0.2-0.5,0.4-0.5c0,0,0.1,0,0.1,0h1.6
	c0.3,0,0.5,0.2,0.5,0.4c0,0,0,0.1,0,0.1v13c0,0.3,0.2,0.5,0.4,0.5c0,0,0.1,0,0.1,0h1.5c0.3,0,0.5-0.2,0.5-0.4c0,0,0-0.1,0-0.1V14.8z
	"/>
<path class="st0" d="M67.6,16.4c-0.3,0-0.5,0.2-0.5,0.4c0,0,0,0.1,0,0.1v10.8c0,0.3,0.2,0.5,0.4,0.5c0,0,0.1,0,0.1,0h1.7
	c0.3,0,0.5-0.2,0.5-0.4c0,0,0-0.1,0-0.1v-1.7c0-0.3,0.2-0.5,0.4-0.5c0,0,0.1,0,0.1,0H72c0.3,0,0.5,0.2,0.5,0.4c0,0,0,0.1,0,0.1v2.3
	c0,1.1-0.9,2.1-2,2.1c0,0,0,0,0,0h-3.9c-1.1,0-2.1-0.9-2.1-2c0,0,0,0,0,0v-12c0-1.1,0.9-2.1,2-2.1c0,0,0,0,0,0h3.8
	c1.1,0,2.1,0.9,2.1,2c0,0,0,0,0,0v2.3c0,0.3-0.2,0.5-0.4,0.5c0,0-0.1,0-0.1,0h-1.6c-0.3,0-0.5-0.2-0.5-0.4c0,0,0-0.1,0-0.1V17
	c0-0.3-0.2-0.5-0.4-0.5c0,0-0.1,0-0.1,0H67.6z"/>
<path class="st0" d="M76.2,14.3c0.3,0,0.5,0.2,0.5,0.4c0,0,0,0.1,0,0.1v15.1c0,0.3-0.2,0.5-0.4,0.5c0,0-0.1,0-0.1,0h-1.6
	c-0.3,0-0.5-0.2-0.5-0.4c0,0,0-0.1,0-0.1V14.8c0-0.3,0.2-0.5,0.4-0.5c0,0,0.1,0,0.1,0H76.2z"/>
<path class="st0" d="M78.7,16.4c0-1.1,0.9-2.1,2-2.1c0,0,0,0,0,0h3.9c1.1,0,2.1,0.9,2.1,2c0,0,0,0,0,0v12c0,1.1-0.9,2.1-2,2.1
	c0,0,0,0,0,0h-3.9c-1.1,0-2.1-0.9-2.1-2c0,0,0,0,0,0V16.4z M81.8,16.4c-0.3,0-0.5,0.2-0.5,0.4c0,0,0,0.1,0,0.1v10.8
	c0,0.3,0.2,0.5,0.4,0.5c0,0,0.1,0,0.1,0h1.7c0.3,0,0.5-0.2,0.5-0.4c0,0,0-0.1,0-0.1V17c0-0.3-0.2-0.5-0.4-0.5c0,0-0.1,0-0.1,0H81.8z
	"/>
<path class="st0" d="M92.5,14.3c0.3,0,0.5,0.2,0.5,0.5l1.3,10.4l0.3,3h0.1l-0.2-13.3c0-0.3,0.2-0.5,0.4-0.5c0,0,0.1,0,0.1,0h1.3
	c0.3,0,0.5,0.2,0.5,0.4c0,0,0,0.1,0,0.1l-0.1,15.1c0,0.3-0.2,0.5-0.4,0.5c0,0-0.1,0-0.1,0h-3.3c-0.3,0-0.5-0.2-0.5-0.5l-1.4-10.7
	l-0.2-2.8h-0.1L91,29.9c0,0.3-0.2,0.5-0.4,0.5c0,0-0.1,0-0.1,0h-1.3c-0.3,0-0.5-0.2-0.5-0.4c0,0,0-0.1,0-0.1V14.8
	c0-0.3,0.2-0.5,0.4-0.5c0,0,0.1,0,0.1,0H92.5z"/>
<path class="st0" d="M128.5,19.2c0.3,0.9,0.4,1.8,0.4,2.7v6.5c0,1.1-0.9,2.1-2,2.1c0,0,0,0,0,0h-5.7V14.3h4c1.1-0.1,2.1,0.7,2.3,1.8
	L128.5,19.2z M125.1,16.8c-0.1-0.3-0.3-0.4-0.6-0.4h-0.8v11.9h2c0.3,0,0.5-0.2,0.5-0.4c0,0,0-0.1,0-0.1v-6.5c0-0.3,0-0.5-0.1-0.8
	L125.1,16.8z"/>
<path class="st0" d="M133.5,23v5.3h3.1c0.3,0,0.5,0.2,0.5,0.4c0,0,0,0.1,0,0.1v1.1c0,0.3-0.2,0.5-0.4,0.5c0,0-0.1,0-0.1,0h-5.7V14.3
	h5.6c0.3,0,0.5,0.2,0.5,0.4c0,0,0,0.1,0,0.1v1.1c0,0.3-0.2,0.5-0.4,0.5c0,0-0.1,0-0.1,0h-2.9v4.4h2.4c0.3,0,0.5,0.2,0.5,0.4
	c0,0,0,0.1,0,0.1v1.1c0,0.3-0.2,0.5-0.4,0.5c0,0-0.1,0-0.1,0L133.5,23z"/>
<path class="st0" d="M141.3,19.2l-0.3-2.8h-0.1l0.2,13.5c0,0.3-0.2,0.5-0.4,0.5c0,0-0.1,0-0.1,0h-1.4c-0.3,0-0.5-0.2-0.5-0.4
	c0,0,0-0.1,0-0.1V14.8c0-0.3,0.2-0.5,0.4-0.5c0,0,0.1,0,0.1,0h3.4c0.3,0,0.5,0.2,0.5,0.5l1.6,10.4l0.3,3h0.1l0.3-3l1.6-10.4
	c0.1-0.3,0.2-0.5,0.5-0.5h3.4c0.3,0,0.5,0.2,0.5,0.4c0,0,0,0.1,0,0.1v15.1c0,0.3-0.2,0.5-0.4,0.5c0,0-0.1,0-0.1,0h-1.4
	c-0.3,0-0.5-0.2-0.5-0.4c0,0,0-0.1,0-0.1l0.2-13.5h-0.1l-0.3,2.8L147,29.9c-0.1,0.3-0.2,0.5-0.5,0.5h-3.1c-0.3,0-0.5-0.2-0.5-0.5
	L141.3,19.2z"/>
<path class="st0" d="M153.2,16.4c0-1.1,0.9-2.1,2-2.1c0,0,0,0,0,0h3.9c1.1,0,2.1,0.9,2.1,2c0,0,0,0,0,0v12c0,1.1-0.9,2.1-2,2.1
	c0,0,0,0,0,0h-3.9c-1.1,0-2.1-0.9-2.1-2c0,0,0,0,0,0V16.4z M156.4,16.4c-0.3,0-0.5,0.2-0.5,0.4c0,0,0,0.1,0,0.1v10.8
	c0,0.3,0.2,0.5,0.4,0.5c0,0,0.1,0,0.1,0h1.7c0.3,0,0.5-0.2,0.5-0.4c0,0,0-0.1,0-0.1V17c0-0.3-0.2-0.5-0.4-0.5c0,0-0.1,0-0.1,0H156.4
	z"/>
<path class="st0" d="M166.3,16.4c-0.3,0-0.5,0.2-0.5,0.4c0,0,0,0.1,0,0.1v10.8c0,0.3,0.2,0.5,0.4,0.5c0,0,0.1,0,0.1,0h1.7
	c0.3,0,0.5-0.2,0.5-0.4c0,0,0-0.1,0-0.1v-1.7c0-0.3,0.2-0.5,0.4-0.5c0,0,0.1,0,0.1,0h1.6c0.3,0,0.5,0.2,0.5,0.4c0,0,0,0.1,0,0.1v2.3
	c0,1.1-0.9,2.1-2,2.1c0,0,0,0,0,0h-3.9c-1.1,0-2.1-0.9-2.1-2c0,0,0,0,0,0v-12c0-1.1,0.9-2.1,2-2.1c0,0,0,0,0,0h3.8c1.1,0,2,0.9,2,2
	v2.3c0,0.3-0.2,0.5-0.4,0.5c0,0-0.1,0-0.1,0H169c-0.3,0-0.5-0.2-0.5-0.4c0,0,0-0.1,0-0.1V17c0-0.3-0.2-0.5-0.4-0.5c0,0-0.1,0-0.1,0
	H166.3z"/>
<path class="st0" d="M180.6,22.2c0,1-0.7,1.8-1.7,2l2.1,5.7c0.1,0.3-0.1,0.5-0.4,0.5H179c-0.3,0-0.6-0.2-0.6-0.5l-2-5.7h-0.9v5.7
	c0,0.3-0.2,0.5-0.4,0.5c0,0-0.1,0-0.1,0h-1.6c-0.3,0-0.5-0.2-0.5-0.4c0,0,0-0.1,0-0.1V14.3h5.7c1.1,0,2.1,0.9,2.1,2c0,0,0,0,0,0
	V22.2z M178,17c0-0.3-0.2-0.5-0.4-0.5c0,0-0.1,0-0.1,0h-2v5.7h2c0.3,0,0.5-0.2,0.5-0.4c0,0,0-0.1,0-0.1V17z"/>
<path class="st0" d="M190.6,29.9c0,0.2-0.1,0.5-0.4,0.5c0,0-0.1,0-0.1,0h-1.6c-0.3,0-0.5-0.2-0.6-0.5c0,0,0,0,0-0.1l-0.4-3.5h-2.8
	l-0.4,3.5c0,0.3-0.2,0.5-0.5,0.5h-1.6c-0.2,0-0.5-0.1-0.5-0.4c0,0,0-0.1,0-0.1l1.7-13.5c0-1.1,0.9-2,2.1-2.1h1.3
	c1.1,0,2,0.9,2.1,2.1L190.6,29.9z M185,24.3h2.3l-0.9-7.8H186L185,24.3z"/>
<path class="st0" d="M197.7,14.3c0.3,0,0.5,0.2,0.5,0.4c0,0,0,0.1,0,0.1v1.1c0,0.3-0.2,0.5-0.4,0.5c0,0-0.1,0-0.1,0h-2.3v13.5
	c0,0.3-0.2,0.5-0.4,0.5c0,0-0.1,0-0.1,0h-1.6c-0.3,0-0.5-0.2-0.5-0.4c0,0,0-0.1,0-0.1V16.4h-2.3c-0.3,0-0.5-0.2-0.5-0.4
	c0,0,0-0.1,0-0.1v-1.1c0-0.3,0.2-0.5,0.4-0.5c0,0,0.1,0,0.1,0H197.7z"/>
<path class="st0" d="M201.4,14.3c0.3,0,0.5,0.2,0.5,0.4c0,0,0,0.1,0,0.1v15.1c0,0.3-0.2,0.5-0.4,0.5c0,0-0.1,0-0.1,0h-1.6
	c-0.3,0-0.5-0.2-0.5-0.4c0,0,0-0.1,0-0.1V14.8c0-0.3,0.2-0.5,0.4-0.5c0,0,0.1,0,0.1,0H201.4z"/>
<path class="st0" d="M207.1,16.4c-0.3,0-0.5,0.2-0.5,0.4c0,0,0,0.1,0,0.1v10.8c0,0.3,0.2,0.5,0.4,0.5c0,0,0.1,0,0.1,0h1.7
	c0.3,0,0.5-0.2,0.5-0.4c0,0,0-0.1,0-0.1v-1.7c0-0.3,0.2-0.5,0.4-0.5c0,0,0.1,0,0.1,0h1.6c0.3,0,0.5,0.2,0.5,0.4c0,0,0,0.1,0,0.1v2.3
	c0,1.1-0.9,2.1-2,2.1c0,0,0,0,0,0H206c-1.1,0-2.1-0.9-2.1-2c0,0,0,0,0,0v-12c0-1.1,0.9-2.1,2-2.1c0,0,0,0,0,0h3.8
	c1.1,0,2.1,0.9,2.1,2c0,0,0,0,0,0v2.3c0,0.3-0.2,0.5-0.4,0.5c0,0-0.1,0-0.1,0h-1.6c-0.3,0-0.5-0.2-0.5-0.4c0,0,0-0.1,0-0.1V17
	c0-0.3-0.2-0.5-0.4-0.5c0,0-0.1,0-0.1,0H207.1z"/>
<path class="st0" d="M221.7,29.9c0,0.2-0.1,0.5-0.4,0.5c0,0-0.1,0-0.1,0h-1.6c-0.3,0-0.5-0.2-0.6-0.5c0,0,0,0,0-0.1l-0.4-3.5h-2.8
	l-0.4,3.5c0,0.3-0.2,0.5-0.5,0.5h-1.6c-0.2,0-0.5-0.1-0.5-0.4c0,0,0-0.1,0-0.1l1.7-13.5c0-1.1,0.9-2,2.1-2.1h1.3
	c1.1,0,2.1,0.9,2.1,2.1L221.7,29.9z M216.1,24.3h2.3l-0.9-7.8H217L216.1,24.3z"/>
<path class="st0" d="M104.6,21.8l-5.1-3.6c-0.4-0.3-0.7-0.7-0.5-1.2c0.2-0.5,0.6-0.8,1.1-0.7l6.3,0.1l1.9-6c0.1-0.5,0.4-0.8,0.9-0.8
	c0.5,0,0.9,0.3,1,0.8l1.9,6h6.3c0.5,0,0.9,0.1,1.1,0.6c0.2,0.5,0,1-0.5,1.3l-5.1,3.6l2.1,5.9c0.2,0.4,0,0.9-0.3,1.2
	c-0.4,0.3-0.9,0.3-1.3,0l-5.1-3.7l-5.1,3.8c-0.3,0.3-0.9,0.4-1.3,0.1c-0.4-0.3-0.6-0.9-0.3-1.3L104.6,21.8z"/>
</svg>
