<svg id="Capa_1" data-name="Capa 1" xmlns="http://www.w3.org/2000/svg" viewBox="0 0 350 200"><defs><style>.cls-1{fill:#1a5e30;}</style></defs><title>logoRD16</title><path class="cls-1" d="M57.16,178l-10.11,1.78V162.34l8-1.41a1.94,1.94,0,0,0,1.73-2v-3.46A1.31,1.31,0,0,0,55.07,154l-8,1.41V140.85l9.65-1.7a2,2,0,0,0,1.74-2v-3.46a1.31,1.31,0,0,0-1.74-1.42L38.5,135.44v52.82L57.16,185a1.94,1.94,0,0,0,1.73-2v-3.46A1.31,1.31,0,0,0,57.16,178ZM84,116.79v-3.46a1.31,1.31,0,0,0-1.73-1.42l-10.11,1.78V96.19l8-1.41a2,2,0,0,0,1.73-2V89.28a1.31,1.31,0,0,0-1.73-1.42l-8,1.41V74.7L81.81,73a1.94,1.94,0,0,0,1.73-2V67.5a1.31,1.31,0,0,0-1.73-1.42L63.59,69.29v52.82l18.67-3.29A2,2,0,0,0,84,116.79ZM216.82,95.09l12.65-2.23a8.37,8.37,0,0,0,6.74-7.93V77.37A1.31,1.31,0,0,0,234.48,76l-5.1.9a1.94,1.94,0,0,0-1.73,2v5.65a2,2,0,0,1-1.73,2l-5.55,1a1.31,1.31,0,0,1-1.73-1.42V50.6a1.94,1.94,0,0,1,1.73-2l5.19-.92a1.31,1.31,0,0,1,1.73,1.42v5.65A1.31,1.31,0,0,0,229,56.15l5.1-.9a1.94,1.94,0,0,0,1.73-2V45.66a5.49,5.49,0,0,0-6.74-5.55l-12.29,2.17a8.37,8.37,0,0,0-6.74,7.93V89.54A5.49,5.49,0,0,0,216.82,95.09ZM114.45,60.33l-5.19.92a2.09,2.09,0,0,0-1.82,2l-4.92,45-1,.18L96.6,65.2c-.09-1.08-.64-1.62-1.73-1.42l-5.28.93a1.8,1.8,0,0,0-1.64,2l5.46,43.39c.46,3.65,3,6.21,6.74,5.55l3.73-.66c3.74-.66,6.29-4.12,6.74-7.93l5.46-45.31C116.18,60.66,115.54,60.13,114.45,60.33Zm-10.32,63.54-11,1.94c-1.09.19-1.55.91-1.73,2l-5.1,34.87-.91,9.81-.46.08L84,163.11,78.91,130c-.19-1.06-.64-1.61-1.73-1.42l-11.2,2a1.94,1.94,0,0,0-1.73,2V182A1.31,1.31,0,0,0,66,183.41l4.37-.77a1.94,1.94,0,0,0,1.73-2l-.54-44.17.46-.08,1.09,8.92,5,34.27c.18,1.06.64,1.62,1.73,1.43l10.29-1.82c1.09-.19,1.55-.91,1.73-2l5-36,1.09-9.3.46-.08-.55,44.36a1.31,1.31,0,0,0,1.74,1.42l4.55-.8a1.94,1.94,0,0,0,1.73-2V125.29A1.31,1.31,0,0,0,104.13,123.87Zm47.23-100,9.11,5L157,40.23a1.34,1.34,0,0,0,.56,1.62,1.6,1.6,0,0,0,1.81-.32l9.14-8.23,9.14,5a1.38,1.38,0,0,0,.91.13,1.87,1.87,0,0,0,.9-.45,1.76,1.76,0,0,0,.56-1.82L176.58,26l9.12-8.26a1.76,1.76,0,0,0,.56-1.82,1.26,1.26,0,0,0-1.46-.81l-11.29,2L170,7a1.26,1.26,0,0,0-1.47-.8,1.94,1.94,0,0,0-1.46,1.32l-3.51,11.34-11.28,2a2,2,0,0,0-1.46,1.32A1.34,1.34,0,0,0,151.36,23.83ZM27.61,143.19c-1.19-3.34-3.19-5.26-7.47-4.51L6.94,141v52.82l18.66-3.29a8.37,8.37,0,0,0,6.74-7.92V161.3a25.7,25.7,0,0,0-1.37-8.5Zm-3.83,39a1.94,1.94,0,0,1-1.73,2l-6.55,1.16v-39L18,146a1.5,1.5,0,0,1,1.82,1l3.64,11.2a8.16,8.16,0,0,1,.36,2.57ZM243.65,90.36l5.1-.9a1.94,1.94,0,0,0,1.72-2V38.07a1.3,1.3,0,0,0-1.72-1.42l-5.1.9a1.94,1.94,0,0,0-1.73,2V88.94A1.31,1.31,0,0,0,243.65,90.36ZM39.89,124.56V106l3-.53,6.46,17.44a1.79,1.79,0,0,0,2.09,1.36l5.19-.91c1.09-.19,1.73-1,1.37-2l-6.92-17.45a8.43,8.43,0,0,0,5.65-7.65v-19A5.49,5.49,0,0,0,50,71.69L31.33,75v51.09a1.31,1.31,0,0,0,1.73,1.42l5.1-.9A2,2,0,0,0,39.89,124.56Zm0-44.17,6.56-1.16a1.31,1.31,0,0,1,1.73,1.43V95.87a1.94,1.94,0,0,1-1.73,2l-6.56,1.16Zm250.72,1.69,4.19-.74a1.94,1.94,0,0,0,1.73-2L296,35.14l.46-.08.73,9,4.47,34.37c.18,1.06.63,1.61,1.73,1.42l10.84-1.91a2,2,0,0,0,1.73-2l.18-49.39a1.31,1.31,0,0,0-1.73-1.42l-4.19.74a1.94,1.94,0,0,0-1.73,2l.63,43.42-.45.17-.91-9.49-4.37-33.2c-.18-1.06-.63-1.62-1.73-1.42l-11,1.94a2,2,0,0,0-1.73,2V80.66A1.31,1.31,0,0,0,290.61,82.08Zm52.45,50.75-5.65-43.36c-.45-3.65-3-6.21-6.74-5.55l-4.28.75c-3.73.66-6.28,4.11-6.74,7.93L314,137.95c-.09,1.11.54,1.63,1.64,1.44l5.28-.93a2,2,0,0,0,1.73-2l1.27-11.61,9.11-1.61,1.36,11.14a1.39,1.39,0,0,0,1.82,1.41l5.19-.91A1.8,1.8,0,0,0,343.05,132.83Zm-18.3-15.26,3-26.21,1.55-.27,2.91,25.16Zm-49-24-5.1.9a1.94,1.94,0,0,0-1.72,2V145.9a1.3,1.3,0,0,0,1.72,1.42l5.1-.9a2,2,0,0,0,1.73-2V95A1.31,1.31,0,0,0,275.74,93.61ZM262.32,96l-23.49,4.14a1.94,1.94,0,0,0-1.73,2v3.46a1.31,1.31,0,0,0,1.73,1.42l7.46-1.32v44.17a1.31,1.31,0,0,0,1.73,1.42l5.09-.9a1.94,1.94,0,0,0,1.73-2V104.21l7.47-1.32a1.94,1.94,0,0,0,1.73-2V97.4A1.31,1.31,0,0,0,262.32,96ZM308,124.72l-5.1.9a2,2,0,0,0-1.73,2v5.65a1.94,1.94,0,0,1-1.73,2l-5.55,1a1.31,1.31,0,0,1-1.73-1.42V99.37a1.94,1.94,0,0,1,1.73-2l5.2-.92a1.31,1.31,0,0,1,1.73,1.42v5.65a1.31,1.31,0,0,0,1.73,1.42l5.1-.9a1.94,1.94,0,0,0,1.73-2V94.42a5.49,5.49,0,0,0-6.74-5.55L290.3,91A8.38,8.38,0,0,0,283.56,99v39.34a5.49,5.49,0,0,0,6.74,5.55L303,141.63a8.37,8.37,0,0,0,6.74-7.92v-7.56A1.31,1.31,0,0,0,308,124.72ZM131.49,119l-12.66,2.23a8.38,8.38,0,0,0-6.74,7.93v39.34a5.49,5.49,0,0,0,6.74,5.55l12.66-2.23a8.36,8.36,0,0,0,6.74-7.92V124.59A5.49,5.49,0,0,0,131.49,119Zm-1.82,44.49a1.94,1.94,0,0,1-1.74,2l-5.55,1a1.31,1.31,0,0,1-1.73-1.43V129.6a1.93,1.93,0,0,1,1.73-2l5.55-1a1.31,1.31,0,0,1,1.74,1.42ZM276,31.85,263.3,34.08A8.37,8.37,0,0,0,256.56,42V81.34a5.49,5.49,0,0,0,6.74,5.55L276,84.66a8.36,8.36,0,0,0,6.73-7.92V37.4A5.49,5.49,0,0,0,276,31.85Zm-1.82,44.49a1.94,1.94,0,0,1-1.73,2l-5.56,1a1.31,1.31,0,0,1-1.73-1.42V42.4a1.94,1.94,0,0,1,1.73-2l5.56-1a1.31,1.31,0,0,1,1.73,1.42Zm-43.46,32c-.46-3.65-3-6.21-6.74-5.55l-4.28.75c-3.73.66-6.28,4.12-6.74,7.93l-5.64,45.35c-.09,1.11.54,1.63,1.63,1.44l5.28-.93a2,2,0,0,0,1.73-2l1.27-11.61L226.3,142l1.37,11.14a1.39,1.39,0,0,0,1.82,1.41l5.19-.92a1.8,1.8,0,0,0,1.64-2ZM218,136.39l3-26.21,1.54-.27,2.91,25.16Zm-49.24,12.87-5.1.9a2,2,0,0,0-1.73,2v5.65a1.94,1.94,0,0,1-1.73,2l-5.56,1a1.31,1.31,0,0,1-1.73-1.42V123.91a2,2,0,0,1,1.73-2l5.19-.91a1.31,1.31,0,0,1,1.73,1.42V128a1.31,1.31,0,0,0,1.73,1.42l5.1-.9a1.94,1.94,0,0,0,1.73-2V119a5.49,5.49,0,0,0-6.74-5.55l-12.29,2.17a8.37,8.37,0,0,0-6.74,7.93v39.34a5.49,5.49,0,0,0,6.74,5.55l12.66-2.23a8.36,8.36,0,0,0,6.74-7.92v-7.56A1.31,1.31,0,0,0,168.78,149.26ZM147,100.66V61.32a5.48,5.48,0,0,0-6.73-5.55L127.64,58a8.38,8.38,0,0,0-6.74,7.93v39.34a5.49,5.49,0,0,0,6.74,5.55l12.66-2.23A8.37,8.37,0,0,0,147,100.66Zm-8.55-.4a2,2,0,0,1-1.73,2l-5.55,1a1.31,1.31,0,0,1-1.73-1.42V66.33a1.94,1.94,0,0,1,1.73-2l5.55-1a1.31,1.31,0,0,1,1.73,1.42ZM172,96.08l-10.2,1.8V53.71A1.3,1.3,0,0,0,160,52.29l-5.1.9a1.94,1.94,0,0,0-1.73,2v51.09L172,103a1.94,1.94,0,0,0,1.73-2V97.5A1.31,1.31,0,0,0,172,96.08Zm30.22-51.22-5.1.9a1.94,1.94,0,0,0-1.73,2V90.22a1.94,1.94,0,0,1-1.73,2l-4.83.85a1.3,1.3,0,0,1-1.73-1.42V49.25a1.31,1.31,0,0,0-1.73-1.42l-5.1.9a1.94,1.94,0,0,0-1.73,2V95.11a5.49,5.49,0,0,0,6.74,5.55l11.93-2.1a8.37,8.37,0,0,0,6.74-7.93V46.28A1.31,1.31,0,0,0,202.19,44.85ZM196,140.09a8.43,8.43,0,0,0,5.65-7.65v-19a5.49,5.49,0,0,0-6.74-5.55l-18.66,3.29v51.09a1.31,1.31,0,0,0,1.73,1.42l5.1-.9a1.94,1.94,0,0,0,1.73-2V142.16l3-.53,6.47,17.44a1.8,1.8,0,0,0,2.1,1.36l5.18-.92c1.09-.19,1.73-1,1.37-2Zm-2.91-8a2,2,0,0,1-1.73,2l-6.55,1.16V116.57l6.55-1.16c1-.18,1.73.24,1.73,1.42Z"/></svg>