<svg id="Capa_1" data-name="Capa 1" xmlns="http://www.w3.org/2000/svg" viewBox="0 0 230 40"><defs><style>.cls-1{fill:#333;}</style></defs><title>LogoRD</title><path class="cls-1" d="M18.76,22.18a2.06,2.06,0,0,1-1.72,2l2.11,5.7c.11.31-.08.53-.42.53H17.14a.68.68,0,0,1-.64-.53l-2-5.67h-.92v5.67a.48.48,0,0,1-.53.53H11.52a.48.48,0,0,1-.53-.53V14.3h5.7a2.05,2.05,0,0,1,2.06,2.06Zm-2.61-5.23a.48.48,0,0,0-.53-.53h-2v5.7h2a.48.48,0,0,0,.53-.53Z"/><path class="cls-1" d="M23.32,23v5.34h3.09a.48.48,0,0,1,.53.53v1.06a.48.48,0,0,1-.53.53H20.7V14.3h5.56a.48.48,0,0,1,.53.53v1.06a.48.48,0,0,1-.53.53H23.32v4.45h2.45a.48.48,0,0,1,.53.53v1.06a.48.48,0,0,1-.53.53Z"/><path class="cls-1" d="M34.59,28.38a2.15,2.15,0,0,1-2.06,2.06H31.39a2.15,2.15,0,0,1-2.06-2.06L27.66,14.83a.45.45,0,0,1,.5-.53h1.61c.33,0,.5.19.53.53l1.5,13.49h.31l1.5-13.49a.52.52,0,0,1,.56-.53h1.59a.45.45,0,0,1,.5.53Z"/><path class="cls-1" d="M37.45,16.36a2.05,2.05,0,0,1,2.06-2.06h3.87a2.05,2.05,0,0,1,2.06,2.06v12a2.05,2.05,0,0,1-2.06,2.06H39.51a2.05,2.05,0,0,1-2.06-2.06Zm3.14.06a.48.48,0,0,0-.53.53V27.79a.48.48,0,0,0,.53.53h1.7a.48.48,0,0,0,.53-.53V16.95a.48.48,0,0,0-.53-.53Z"/><path class="cls-1" d="M47.38,14.83a.48.48,0,0,1,.53-.53h1.56a.48.48,0,0,1,.53.53V28.32h3.12a.48.48,0,0,1,.53.53v1.06a.48.48,0,0,1-.53.53H47.38Z"/><path class="cls-1" d="M59.93,14.83a.48.48,0,0,1,.53-.53H62a.48.48,0,0,1,.53.53V28.38a2.05,2.05,0,0,1-2.06,2.06H56.84a2.05,2.05,0,0,1-2.06-2.06V14.83a.48.48,0,0,1,.53-.53h1.56a.48.48,0,0,1,.53.53v13a.48.48,0,0,0,.53.53H59.4a.48.48,0,0,0,.53-.53Z"/><path class="cls-1" d="M67.64,16.42a.48.48,0,0,0-.53.53V27.79a.48.48,0,0,0,.53.53h1.7a.48.48,0,0,0,.53-.53V26.07a.48.48,0,0,1,.53-.53h1.56a.48.48,0,0,1,.53.53v2.31a2.05,2.05,0,0,1-2.06,2.06H66.55a2.05,2.05,0,0,1-2.06-2.06v-12a2.05,2.05,0,0,1,2.06-2.06h3.75a2.05,2.05,0,0,1,2.06,2.06v2.31a.48.48,0,0,1-.53.53H70.28a.48.48,0,0,1-.53-.53V16.95a.48.48,0,0,0-.53-.53Z"/><path class="cls-1" d="M76.23,14.3a.48.48,0,0,1,.53.53V29.91a.48.48,0,0,1-.53.53H74.67a.48.48,0,0,1-.53-.53V14.83a.48.48,0,0,1,.53-.53Z"/><path class="cls-1" d="M78.71,16.36a2.05,2.05,0,0,1,2.06-2.06h3.87a2.05,2.05,0,0,1,2.06,2.06v12a2.05,2.05,0,0,1-2.06,2.06H80.77a2.05,2.05,0,0,1-2.06-2.06Zm3.14.06a.48.48,0,0,0-.53.53V27.79a.48.48,0,0,0,.53.53h1.7a.48.48,0,0,0,.53-.53V16.95a.48.48,0,0,0-.53-.53Z"/><path class="cls-1" d="M92.53,14.3c.33,0,.47.19.53.53L94.4,25.21l.28,2.95.14,0-.19-13.3a.48.48,0,0,1,.53-.53h1.28a.48.48,0,0,1,.53.53L96.9,29.91a.48.48,0,0,1-.53.53H93.06c-.33,0-.47-.19-.53-.53L91.17,19.17l-.22-2.78h-.14L91,29.91a.48.48,0,0,1-.53.53H89.17a.48.48,0,0,1-.53-.53V14.83a.48.48,0,0,1,.53-.53Z"/><path class="cls-1" d="M128.5,19.2a8.53,8.53,0,0,1,.42,2.67v6.51a2.05,2.05,0,0,1-2.06,2.06h-5.7V14.3h4a2.21,2.21,0,0,1,2.28,1.78Zm-3.42-2.36a.56.56,0,0,0-.56-.42h-.75V28.32h2a.48.48,0,0,0,.53-.53V21.26a2.69,2.69,0,0,0-.11-.81Z"/><path class="cls-1" d="M133.48,23v5.34h3.09a.48.48,0,0,1,.53.53v1.06a.48.48,0,0,1-.53.53h-5.7V14.3h5.56a.48.48,0,0,1,.53.53v1.06a.48.48,0,0,1-.53.53h-2.95v4.45h2.45a.48.48,0,0,1,.53.53v1.06a.48.48,0,0,1-.53.53Z"/><path class="cls-1" d="M141.27,19.17l-.33-2.78h-.14L141,29.91a.48.48,0,0,1-.53.53H139.1a.48.48,0,0,1-.53-.53V14.83a.48.48,0,0,1,.53-.53h3.42c.33,0,.47.19.53.53l1.56,10.38.28,2.95H145l.28-2.95,1.56-10.38c.06-.33.19-.53.53-.53h3.37a.48.48,0,0,1,.53.53V29.91a.48.48,0,0,1-.53.53h-1.39a.48.48,0,0,1-.53-.53L149,16.39h-.14l-.33,2.78L147,29.91c-.06.33-.19.53-.53.53h-3.14c-.33,0-.47-.19-.53-.53Z"/><path class="cls-1" d="M153.23,16.36a2.05,2.05,0,0,1,2.06-2.06h3.87a2.05,2.05,0,0,1,2.06,2.06v12a2.05,2.05,0,0,1-2.06,2.06h-3.87a2.05,2.05,0,0,1-2.06-2.06Zm3.14.06a.48.48,0,0,0-.53.53V27.79a.48.48,0,0,0,.53.53h1.7a.48.48,0,0,0,.53-.53V16.95a.48.48,0,0,0-.53-.53Z"/><path class="cls-1" d="M166.31,16.42a.48.48,0,0,0-.53.53V27.79a.48.48,0,0,0,.53.53H168a.48.48,0,0,0,.53-.53V26.07a.48.48,0,0,1,.53-.53h1.56a.48.48,0,0,1,.53.53v2.31a2.05,2.05,0,0,1-2.06,2.06h-3.87a2.05,2.05,0,0,1-2.06-2.06v-12a2.05,2.05,0,0,1,2.06-2.06H169A2.05,2.05,0,0,1,171,16.36v2.31a.48.48,0,0,1-.53.53H169a.48.48,0,0,1-.53-.53V16.95a.48.48,0,0,0-.53-.53Z"/><path class="cls-1" d="M180.58,22.18a2.06,2.06,0,0,1-1.72,2l2.11,5.7c.11.31-.08.53-.42.53H179a.68.68,0,0,1-.64-.53l-2-5.67h-.92v5.67a.48.48,0,0,1-.53.53h-1.56a.48.48,0,0,1-.53-.53V14.3h5.7a2.05,2.05,0,0,1,2.06,2.06ZM178,16.95a.48.48,0,0,0-.53-.53h-2v5.7h2a.48.48,0,0,0,.53-.53Z"/><path class="cls-1" d="M190.63,29.91a.45.45,0,0,1-.5.53h-1.59a.52.52,0,0,1-.56-.53l-.42-3.48h-2.78l-.39,3.48c0,.33-.19.53-.53.53h-1.61a.45.45,0,0,1-.5-.53l1.72-13.55a2.15,2.15,0,0,1,2.06-2.06h1.31a2.15,2.15,0,0,1,2.06,2.06ZM185,24.26h2.28l-.89-7.84H186Z"/><path class="cls-1" d="M197.69,14.3a.48.48,0,0,1,.53.53v1.06a.48.48,0,0,1-.53.53h-2.28V29.91a.48.48,0,0,1-.53.53h-1.56a.48.48,0,0,1-.53-.53V16.42h-2.28a.48.48,0,0,1-.53-.53V14.83a.48.48,0,0,1,.53-.53Z"/><path class="cls-1" d="M201.45,14.3a.48.48,0,0,1,.53.53V29.91a.48.48,0,0,1-.53.53h-1.56a.48.48,0,0,1-.53-.53V14.83a.48.48,0,0,1,.53-.53Z"/><path class="cls-1" d="M207.07,16.42a.48.48,0,0,0-.53.53V27.79a.48.48,0,0,0,.53.53h1.7a.48.48,0,0,0,.53-.53V26.07a.48.48,0,0,1,.53-.53h1.56a.48.48,0,0,1,.53.53v2.31a2.05,2.05,0,0,1-2.06,2.06H206a2.05,2.05,0,0,1-2.06-2.06v-12A2.05,2.05,0,0,1,206,14.3h3.75a2.05,2.05,0,0,1,2.06,2.06v2.31a.48.48,0,0,1-.53.53h-1.56a.48.48,0,0,1-.53-.53V16.95a.48.48,0,0,0-.53-.53Z"/><path class="cls-1" d="M221.67,29.91a.45.45,0,0,1-.5.53h-1.59a.52.52,0,0,1-.56-.53l-.42-3.48h-2.78l-.39,3.48c0,.33-.19.53-.53.53H213.3a.45.45,0,0,1-.5-.53l1.72-13.55a2.15,2.15,0,0,1,2.06-2.06h1.31A2.15,2.15,0,0,1,220,16.36Zm-5.59-5.65h2.28l-.89-7.84H217Z"/><path class="cls-1" d="M104.55,21.81l-5.1-3.65c-.42-.33-.7-.7-.51-1.22a1.05,1.05,0,0,1,1.12-.7l6.27.09,1.87-6c.14-.47.38-.79.94-.79a1,1,0,0,1,1,.79l1.92,6,6.27,0c.51,0,.89.09,1.08.61a1,1,0,0,1-.47,1.26l-5.05,3.65L116,27.75a1,1,0,0,1-.33,1.17,1,1,0,0,1-1.31,0l-5.05-3.74-5.05,3.79a1.06,1.06,0,0,1-1.26.14,1,1,0,0,1-.33-1.31Z"/></svg>